<?xml version="1.0" encoding="UTF-8"?>
<svg xmlns="http://www.w3.org/2000/svg" xmlns:xlink="http://www.w3.org/1999/xlink" width="192px" height="192px" viewBox="0 0 192 192" version="1.1">
<g id="surface1">
<path style=" stroke:none;fill-rule:nonzero;fill:rgb(96.862745%,69.803922%,22.352941%);fill-opacity:1;" d="M 136.203125 21.210938 L 136.203125 58.378906 L 65.546875 58.378906 C 60.160156 58.378906 55.792969 62.746094 55.792969 68.132812 L 55.792969 72.425781 L 13.085938 72.425781 C 7.699219 72.425781 3.332031 68.0625 3.332031 62.671875 L 3.332031 21.210938 C 3.332031 15.828125 7.699219 11.460938 13.085938 11.460938 L 126.449219 11.460938 C 131.839844 11.460938 136.203125 15.828125 136.203125 21.210938 Z M 136.203125 21.210938 "/>
<path style=" stroke:none;fill-rule:nonzero;fill:rgb(96.862745%,69.803922%,22.352941%);fill-opacity:1;" d="M 136.203125 119.347656 L 136.203125 154.414062 C 136.203125 159.800781 131.839844 164.167969 126.449219 164.167969 L 46.398438 164.167969 L 30.03125 180.535156 L 30.03125 164.167969 L 13.085938 164.167969 C 7.703125 164.167969 3.332031 159.800781 3.332031 154.414062 L 3.332031 112.949219 C 3.332031 107.566406 7.703125 103.203125 13.085938 103.203125 L 126.449219 103.203125 C 131.839844 103.203125 136.203125 107.566406 136.203125 112.949219 Z M 136.203125 119.347656 "/>
<path style=" stroke:none;fill-rule:nonzero;fill:rgb(97.647059%,32.941176%,15.686275%);fill-opacity:1;" d="M 188.664062 68.132812 L 188.664062 109.59375 C 188.664062 114.976562 184.300781 119.347656 178.910156 119.347656 L 136.203125 119.347656 L 136.203125 112.949219 C 136.203125 107.566406 131.839844 103.203125 126.449219 103.203125 L 55.792969 103.203125 L 55.792969 68.132812 C 55.792969 62.746094 60.160156 58.378906 65.546875 58.378906 L 178.910156 58.378906 C 184.300781 58.378906 188.664062 62.746094 188.664062 68.132812 Z M 188.664062 68.132812 "/>
<path style=" stroke:none;fill-rule:nonzero;fill:rgb(20%,20%,20%);fill-opacity:1;" d="M 178.910156 55.042969 L 139.539062 55.042969 L 139.539062 21.210938 C 139.539062 13.996094 133.667969 8.128906 126.453125 8.128906 L 13.089844 8.128906 C 5.871094 8.128906 0 13.996094 0 21.210938 L 0 62.671875 C 0 69.890625 5.871094 75.761719 13.089844 75.761719 L 52.460938 75.761719 L 52.460938 99.867188 L 13.089844 99.867188 C 5.871094 99.867188 0 105.738281 0 112.953125 L 0 154.414062 C 0 161.628906 5.871094 167.5 13.089844 167.5 L 26.695312 167.5 L 26.695312 180.539062 C 26.695312 181.886719 27.507812 183.101562 28.753906 183.617188 C 29.164062 183.789062 29.597656 183.871094 30.027344 183.871094 C 30.894531 183.871094 31.75 183.535156 32.386719 182.894531 L 47.78125 167.5 L 126.453125 167.5 C 133.667969 167.5 139.539062 161.628906 139.539062 154.414062 L 139.539062 122.683594 L 178.914062 122.683594 C 186.128906 122.683594 192 116.8125 192 109.59375 L 192 68.132812 C 192 60.914062 186.128906 55.042969 178.910156 55.042969 Z M 13.089844 69.09375 C 9.546875 69.09375 6.667969 66.210938 6.667969 62.671875 L 6.667969 21.210938 C 6.667969 17.675781 9.546875 14.796875 13.089844 14.796875 L 126.449219 14.796875 C 129.992188 14.796875 132.871094 17.675781 132.871094 21.210938 L 132.871094 55.042969 L 65.546875 55.042969 C 58.332031 55.042969 52.460938 60.914062 52.460938 68.132812 L 52.460938 69.09375 Z M 132.871094 154.414062 C 132.871094 157.953125 129.992188 160.832031 126.453125 160.832031 L 46.402344 160.832031 C 45.515625 160.832031 44.667969 161.183594 44.042969 161.808594 L 33.363281 172.488281 L 33.363281 164.167969 C 33.363281 162.324219 31.871094 160.832031 30.027344 160.832031 L 13.089844 160.832031 C 9.550781 160.832031 6.667969 157.953125 6.667969 154.414062 L 6.667969 112.953125 C 6.667969 109.414062 9.550781 106.535156 13.089844 106.535156 L 126.453125 106.535156 C 129.992188 106.535156 132.871094 109.414062 132.871094 112.953125 Z M 185.332031 109.59375 C 185.332031 113.132812 182.453125 116.011719 178.914062 116.011719 L 139.539062 116.011719 L 139.539062 112.953125 C 139.539062 105.738281 133.667969 99.867188 126.453125 99.867188 L 59.128906 99.867188 L 59.128906 68.132812 C 59.128906 64.59375 62.007812 61.710938 65.546875 61.710938 L 178.910156 61.710938 C 182.449219 61.710938 185.332031 64.59375 185.332031 68.132812 Z M 185.332031 109.59375 "/>
<path style=" stroke:none;fill-rule:nonzero;fill:rgb(20%,20%,20%);fill-opacity:1;" d="M 22.394531 34.859375 L 87.300781 34.859375 C 89.144531 34.859375 90.636719 33.367188 90.636719 31.527344 C 90.636719 29.683594 89.144531 28.191406 87.300781 28.191406 L 22.394531 28.191406 C 20.550781 28.191406 19.058594 29.683594 19.058594 31.527344 C 19.058594 33.367188 20.550781 34.859375 22.394531 34.859375 Z M 22.394531 34.859375 "/>
<path style=" stroke:none;fill-rule:nonzero;fill:rgb(20%,20%,20%);fill-opacity:1;" d="M 109.308594 44.953125 C 109.308594 43.109375 107.816406 41.617188 105.972656 41.617188 L 22.394531 41.617188 C 20.550781 41.617188 19.058594 43.109375 19.058594 44.953125 C 19.058594 46.792969 20.550781 48.285156 22.394531 48.285156 L 105.972656 48.285156 C 107.816406 48.285156 109.308594 46.792969 109.308594 44.953125 Z M 109.308594 44.953125 "/>
<path style=" stroke:none;fill-rule:nonzero;fill:rgb(20%,20%,20%);fill-opacity:1;" d="M 73.011719 79.316406 L 137.921875 79.316406 C 139.761719 79.316406 141.253906 77.824219 141.253906 75.984375 C 141.253906 74.140625 139.761719 72.648438 137.921875 72.648438 L 73.011719 72.648438 C 71.171875 72.648438 69.679688 74.140625 69.679688 75.984375 C 69.679688 77.824219 71.171875 79.316406 73.011719 79.316406 Z M 73.011719 79.316406 "/>
<path style=" stroke:none;fill-rule:nonzero;fill:rgb(20%,20%,20%);fill-opacity:1;" d="M 156.59375 86.074219 L 73.011719 86.074219 C 71.171875 86.074219 69.679688 87.570312 69.679688 89.410156 C 69.679688 91.25 71.171875 92.746094 73.011719 92.746094 L 156.59375 92.746094 C 158.4375 92.746094 159.929688 91.25 159.929688 89.410156 C 159.929688 87.570312 158.4375 86.074219 156.59375 86.074219 Z M 156.59375 86.074219 "/>
<path style=" stroke:none;fill-rule:nonzero;fill:rgb(20%,20%,20%);fill-opacity:1;" d="M 22.394531 123.226562 L 87.300781 123.226562 C 89.144531 123.226562 90.636719 121.734375 90.636719 119.890625 C 90.636719 118.050781 89.144531 116.558594 87.300781 116.558594 L 22.394531 116.558594 C 20.550781 116.558594 19.058594 118.050781 19.058594 119.890625 C 19.058594 121.734375 20.550781 123.226562 22.394531 123.226562 Z M 22.394531 123.226562 "/>
<path style=" stroke:none;fill-rule:nonzero;fill:rgb(20%,20%,20%);fill-opacity:1;" d="M 22.394531 136.652344 L 63.292969 136.652344 C 65.136719 136.652344 66.628906 135.160156 66.628906 133.320312 C 66.628906 131.476562 65.136719 129.984375 63.292969 129.984375 L 22.394531 129.984375 C 20.550781 129.984375 19.058594 131.476562 19.058594 133.320312 C 19.058594 135.160156 20.550781 136.652344 22.394531 136.652344 Z M 22.394531 136.652344 "/>
<path style=" stroke:none;fill-rule:nonzero;fill:rgb(20%,20%,20%);fill-opacity:1;" d="M 105.972656 143.945312 L 22.394531 143.945312 C 20.550781 143.945312 19.058594 145.4375 19.058594 147.277344 C 19.058594 149.121094 20.550781 150.613281 22.394531 150.613281 L 105.972656 150.613281 C 107.816406 150.613281 109.308594 149.121094 109.308594 147.277344 C 109.308594 145.4375 107.816406 143.945312 105.972656 143.945312 Z M 105.972656 143.945312 "/>
</g>
</svg>
