<?xml version="1.0" encoding="UTF-8"?>
<svg xmlns="http://www.w3.org/2000/svg" xmlns:xlink="http://www.w3.org/1999/xlink" width="512px" height="512px" viewBox="0 0 512 512" version="1.1">
<g id="surface1">
<path style=" stroke:none;fill-rule:nonzero;fill:rgb(96.862745%,69.803922%,22.352941%);fill-opacity:1;" d="M 363.207031 56.5625 L 363.207031 155.675781 L 174.792969 155.675781 C 160.425781 155.675781 148.78125 167.324219 148.78125 181.6875 L 148.78125 193.136719 L 34.894531 193.136719 C 20.53125 193.136719 8.886719 181.5 8.886719 167.125 L 8.886719 56.5625 C 8.886719 42.207031 20.53125 30.5625 34.894531 30.5625 L 337.199219 30.5625 C 351.574219 30.5625 363.207031 42.207031 363.207031 56.5625 Z M 363.207031 56.5625 "/>
<path style=" stroke:none;fill-rule:nonzero;fill:rgb(96.862745%,69.803922%,22.352941%);fill-opacity:1;" d="M 363.207031 318.261719 L 363.207031 411.769531 C 363.207031 426.136719 351.574219 437.78125 337.199219 437.78125 L 123.730469 437.78125 L 80.082031 481.425781 L 80.082031 437.78125 L 34.894531 437.78125 C 20.542969 437.78125 8.886719 426.136719 8.886719 411.769531 L 8.886719 301.199219 C 8.886719 286.84375 20.542969 275.207031 34.894531 275.207031 L 337.199219 275.207031 C 351.574219 275.207031 363.207031 286.84375 363.207031 301.199219 Z M 363.207031 318.261719 "/>
<path style=" stroke:none;fill-rule:nonzero;fill:rgb(97.647059%,32.941176%,15.686275%);fill-opacity:1;" d="M 503.105469 181.6875 L 503.105469 292.25 C 503.105469 306.605469 491.46875 318.261719 477.09375 318.261719 L 363.207031 318.261719 L 363.207031 301.199219 C 363.207031 286.84375 351.574219 275.207031 337.199219 275.207031 L 148.78125 275.207031 L 148.78125 181.6875 C 148.78125 167.324219 160.425781 155.675781 174.792969 155.675781 L 477.09375 155.675781 C 491.46875 155.675781 503.105469 167.324219 503.105469 181.6875 Z M 503.105469 181.6875 "/>
<path style=" stroke:none;fill-rule:nonzero;fill:rgb(20%,20%,20%);fill-opacity:1;" d="M 477.09375 146.78125 L 372.105469 146.78125 L 372.105469 56.5625 C 372.105469 37.324219 356.449219 21.675781 337.207031 21.675781 L 34.90625 21.675781 C 15.65625 21.675781 0 37.324219 0 56.5625 L 0 167.125 C 0 186.375 15.65625 202.03125 34.90625 202.03125 L 139.894531 202.03125 L 139.894531 266.3125 L 34.90625 266.3125 C 15.65625 266.3125 0 281.96875 0 301.207031 L 0 411.769531 C 0 431.011719 15.65625 446.667969 34.90625 446.667969 L 71.1875 446.667969 L 71.1875 481.4375 C 71.1875 485.03125 73.355469 488.269531 76.675781 489.644531 C 77.769531 490.105469 78.925781 490.324219 80.074219 490.324219 C 82.386719 490.324219 84.667969 489.425781 86.363281 487.71875 L 127.417969 446.667969 L 337.207031 446.667969 C 356.449219 446.667969 372.105469 431.011719 372.105469 411.769531 L 372.105469 327.15625 L 477.105469 327.15625 C 496.34375 327.15625 512 311.5 512 292.25 L 512 181.6875 C 512 162.4375 496.34375 146.78125 477.09375 146.78125 Z M 34.90625 184.25 C 25.457031 184.25 17.78125 176.5625 17.78125 167.125 L 17.78125 56.5625 C 17.78125 47.136719 25.457031 39.457031 34.90625 39.457031 L 337.199219 39.457031 C 346.644531 39.457031 354.324219 47.136719 354.324219 56.5625 L 354.324219 146.78125 L 174.792969 146.78125 C 155.550781 146.78125 139.894531 162.4375 139.894531 181.6875 L 139.894531 184.25 Z M 354.324219 411.769531 C 354.324219 421.207031 346.644531 428.886719 337.207031 428.886719 L 123.738281 428.886719 C 121.375 428.886719 119.113281 429.824219 117.449219 431.488281 L 88.96875 459.96875 L 88.96875 437.78125 C 88.96875 432.863281 84.988281 428.886719 80.074219 428.886719 L 34.90625 428.886719 C 25.46875 428.886719 17.78125 421.207031 17.78125 411.769531 L 17.78125 301.207031 C 17.78125 291.769531 25.46875 284.09375 34.90625 284.09375 L 337.207031 284.09375 C 346.644531 284.09375 354.324219 291.769531 354.324219 301.207031 Z M 494.21875 292.25 C 494.21875 301.6875 486.542969 309.363281 477.105469 309.363281 L 372.105469 309.363281 L 372.105469 301.207031 C 372.105469 281.96875 356.449219 266.3125 337.207031 266.3125 L 157.675781 266.3125 L 157.675781 181.6875 C 157.675781 172.25 165.355469 164.5625 174.792969 164.5625 L 477.09375 164.5625 C 486.53125 164.5625 494.21875 172.25 494.21875 181.6875 Z M 494.21875 292.25 "/>
<path style=" stroke:none;fill-rule:nonzero;fill:rgb(20%,20%,20%);fill-opacity:1;" d="M 59.71875 92.957031 L 232.800781 92.957031 C 237.71875 92.957031 241.699219 88.980469 241.699219 84.074219 C 241.699219 79.15625 237.71875 75.175781 232.800781 75.175781 L 59.71875 75.175781 C 54.800781 75.175781 50.824219 79.15625 50.824219 84.074219 C 50.824219 88.980469 54.800781 92.957031 59.71875 92.957031 Z M 59.71875 92.957031 "/>
<path style=" stroke:none;fill-rule:nonzero;fill:rgb(20%,20%,20%);fill-opacity:1;" d="M 291.488281 119.875 C 291.488281 114.957031 287.511719 110.980469 282.59375 110.980469 L 59.71875 110.980469 C 54.800781 110.980469 50.824219 114.957031 50.824219 119.875 C 50.824219 124.78125 54.800781 128.761719 59.71875 128.761719 L 282.59375 128.761719 C 287.511719 128.761719 291.488281 124.78125 291.488281 119.875 Z M 291.488281 119.875 "/>
<path style=" stroke:none;fill-rule:nonzero;fill:rgb(20%,20%,20%);fill-opacity:1;" d="M 194.699219 211.511719 L 367.792969 211.511719 C 372.699219 211.511719 376.675781 207.53125 376.675781 202.625 C 376.675781 197.707031 372.699219 193.730469 367.792969 193.730469 L 194.699219 193.730469 C 189.792969 193.730469 185.8125 197.707031 185.8125 202.625 C 185.8125 207.53125 189.792969 211.511719 194.699219 211.511719 Z M 194.699219 211.511719 "/>
<path style=" stroke:none;fill-rule:nonzero;fill:rgb(20%,20%,20%);fill-opacity:1;" d="M 417.582031 229.53125 L 194.699219 229.53125 C 189.792969 229.53125 185.8125 233.519531 185.8125 238.425781 C 185.8125 243.332031 189.792969 247.324219 194.699219 247.324219 L 417.582031 247.324219 C 422.5 247.324219 426.480469 243.332031 426.480469 238.425781 C 426.480469 233.519531 422.5 229.53125 417.582031 229.53125 Z M 417.582031 229.53125 "/>
<path style=" stroke:none;fill-rule:nonzero;fill:rgb(20%,20%,20%);fill-opacity:1;" d="M 59.71875 328.605469 L 232.800781 328.605469 C 237.71875 328.605469 241.699219 324.625 241.699219 319.707031 C 241.699219 314.800781 237.71875 310.824219 232.800781 310.824219 L 59.71875 310.824219 C 54.800781 310.824219 50.824219 314.800781 50.824219 319.707031 C 50.824219 324.625 54.800781 328.605469 59.71875 328.605469 Z M 59.71875 328.605469 "/>
<path style=" stroke:none;fill-rule:nonzero;fill:rgb(20%,20%,20%);fill-opacity:1;" d="M 59.71875 364.40625 L 168.78125 364.40625 C 173.699219 364.40625 177.675781 360.425781 177.675781 355.519531 C 177.675781 350.605469 173.699219 346.625 168.78125 346.625 L 59.71875 346.625 C 54.800781 346.625 50.824219 350.605469 50.824219 355.519531 C 50.824219 360.425781 54.800781 364.40625 59.71875 364.40625 Z M 59.71875 364.40625 "/>
<path style=" stroke:none;fill-rule:nonzero;fill:rgb(20%,20%,20%);fill-opacity:1;" d="M 282.59375 383.855469 L 59.71875 383.855469 C 54.800781 383.855469 50.824219 387.832031 50.824219 392.738281 C 50.824219 397.65625 54.800781 401.636719 59.71875 401.636719 L 282.59375 401.636719 C 287.511719 401.636719 291.488281 397.65625 291.488281 392.738281 C 291.488281 387.832031 287.511719 383.855469 282.59375 383.855469 Z M 282.59375 383.855469 "/>
</g>
</svg>
